<?xml version="1.0" encoding="utf-8"?>
<!-- Generator: Adobe Illustrator 19.1.0, SVG Export Plug-In . SVG Version: 6.00 Build 0)  -->
<svg version="1.1" id="Layer_1" xmlns="http://www.w3.org/2000/svg" xmlns:xlink="http://www.w3.org/1999/xlink" x="0px" y="0px"
	 viewBox="0 0 91.6 91.6" style="max-width: 60px; max-height: 60px; enable-background:new 0 0 91.6 91.6;" xml:space="preserve">
<path d="M91.2,10.6L73.1,0.1c-0.2-0.1-0.5-0.1-0.8,0L48.7,13.7L25.1,0.1c-0.2-0.1-0.5-0.1-0.8,0l-24,13.8C0.1,14.1,0,14.3,0,14.6
	v20.9c0,0.3,0.1,0.5,0.4,0.7L24,49.8V77c0,0.3,0.1,0.5,0.4,0.7l24,13.8c0.1,0.1,0.3,0.1,0.4,0.1c0.1,0,0.3,0,0.4-0.1l18.1-10.5
	c0.2-0.1,0.4-0.4,0.4-0.7V53.2l23.6-13.6c0.2-0.1,0.4-0.4,0.4-0.7V11.2C91.6,11,91.4,10.7,91.2,10.6z M43.6,31.7V12.6l28.2,16.3V48
	L43.6,31.7z M25.5,54.8V22.1l16.5-9.5v32.6L25.5,54.8z M24,27.1l-3.5-2l3.5-2V27.1z M43.6,33.5l9.3,5.4l-9.3,5.4V33.5z M71.9,27.1
	l-3.5-2l3.5-2V27.1z M72.7,1.7l16.5,9.5L66.8,24.2l-16.5-9.5L72.7,1.7z M24.7,1.7l16.5,9.5L18.9,24.2L2.4,14.6L24.7,1.7z M1.6,35.1
	V16L24,28.9V48L1.6,35.1z M25.5,57.5l22.4,12.9v19.1L25.5,76.6V57.5z M66,79.9l-16.5,9.5V63.6L66,54.1V79.9z M47.9,68.6l-3.5-2
	l3.5-2V68.6z M42.9,65.7l-16.5-9.5l28.2-16.3l16.5,9.5L42.9,65.7z M90,38.4L73.4,48V28.5v-6.3L90,12.6V38.4z"/>
</svg>
